<?xml version="1.0" encoding="utf-8"?>
<!-- Generator: Adobe Illustrator 25.2.1, SVG Export Plug-In . SVG Version: 6.00 Build 0)  -->
<svg version="1.1" id="Layer_1" xmlns="http://www.w3.org/2000/svg" xmlns:xlink="http://www.w3.org/1999/xlink" x="0px" y="0px"
	 viewBox="0 0 68 68" style="enable-background:new 0 0 68 68;" xml:space="preserve">
<style type="text/css">
	.st0{fill:none;stroke:#00DCF0;stroke-width:0.2835;stroke-linecap:round;stroke-linejoin:round;stroke-miterlimit:10;}
	.st1{fill:none;stroke:#000000;stroke-width:0.2835;stroke-linecap:round;stroke-linejoin:round;stroke-miterlimit:10;}
	.st2{fill:none;stroke:#F00000;stroke-width:0.2835;stroke-linecap:round;stroke-linejoin:round;stroke-miterlimit:10;}
</style>
<rect x="-8.5" y="-8.5" class="st0" width="85" height="85"/>
<circle class="st0" cx="33.6" cy="34" r="2.8"/>
<path id="scleraBack" class="st0" d="M33.6,31.2c-1.5,0-2.7,1.2-2.7,2.7s1.2,2.7,2.7,2.7s2.7-1.2,2.7-2.7S35.1,31.2,33.6,31.2"/>
<path id="scleraFront" class="st0" d="M33.5,31.4c1.4,0,2.5,1.1,2.5,2.5c0,1.4-1.1,2.5-2.5,2.5s-2.5-1.1-2.5-2.5
	C30.9,32.6,32,31.4,33.5,31.4"/>
<path id="iris" class="st1" d="M34,30.4c2.3,0,4.2,1.6,4.2,3.7c0,2-1.9,3.7-4.2,3.7s-4.2-1.6-4.2-3.7S31.7,30.4,34,30.4"/>
<path id="pupilMax" class="st1" d="M33.9,31.2c1.6,0,2.9,1.3,2.9,2.8c0,1.5-1.3,2.8-2.9,2.8s-2.9-1.3-2.9-2.8
	C30.9,32.4,32.2,31.2,33.9,31.2"/>
<path id="pupilMin" class="st1" d="M34,31.2c1.6,0,2.8,1.3,2.8,2.8c0,1.6-1.3,2.8-2.8,2.8c-1.6,0-2.8-1.3-2.8-2.8S32.5,31.2,34,31.2
	"/>
<path id="lowerLidEdge" class="st2" d="M88.3,32.8c0.1,1.1,0.1,2.2,0.1,3.3c0,29.7-24.8,53.8-55.4,53.8c-25.3,0-46.8-16.5-53.4-39"
	/>
<path id="lowerLidClosed" class="st2" d="M81.2,45.2c0.4,9-1.5,22.6-14.1,31c-15.3,10.3-37.4,7.4-54.8,0.6
	c-17.4-6.6-19.1-11.1-28.4-6.8c-5.7,2.7-5,3.3-5.3,4.5"/>
<path id="lowerLidOpen" class="st2" d="M83.1,31.7c1.5,17.7-6.4,32.2-17.6,40.7C49,85,30.7,81.6,18,77.1
	C-11.2,67-9.9,55.8-16.2,54.5c-3-0.6-4.6-1.6-4.8-4.4"/>
<path id="upperLidEdge" class="st2" d="M-17.3,43.3c-1-3.6-1.5-7.3-1.5-11.1c0-25.5,23.7-46.2,53-46.2C61.7-14,84.3,4.2,87,27.6"/>
<path id="upperLidClosed" class="st2" d="M87,43.3c-0.4,9.5-4.9,19.6-19,26.3C52.1,77.3,35,76.6,9,70.9c-27.6-6.1-29.7-6.9-39.6-5.7
	c-3.5,0.3-4.6-0.3-4.9-1.9"/>
<path id="upperLidOpen" class="st2" d="M75,15.6c-2-13.3-11.6-23.7-18.8-27.8c-8.6-4.9-25.6-8.9-41.4,0C-2.3-2.5-1.8,4.9-9.7,13.8
	c-3.3,3.8-2.5,7.5-2.9,16.5"/>
</svg>
